<svg xmlns="http://www.w3.org/2000/svg" viewBox="0 0 32 32">
  <rect width="32" height="32" rx="7" fill="#1a1230"/>
  <rect width="32" height="32" rx="7" fill="url(#grad)" opacity="0.8"/>
  <!-- Trophy shape -->
  <path d="M10 8h12v2h2c1.1 0 2 .9 2 2v1c0 2.2-1.8 4-4 4h-.5c-.8 1.7-2.3 2.8-4 3.3V23h3v2H11.5v-2h3v-2.7c-1.7-.5-3.2-1.6-4-3.3H10c-2.2 0-4-1.8-4-4v-1c0-1.1.9-2 2-2h2V8z" fill="#fbbf24"/>
  <path d="M8 12v1c0 1.1.9 2 2 2h.3c-.2-.6-.3-1.3-.3-2v-1H8zm14 1c0 .7-.1 1.4-.3 2h.3c1.1 0 2-.9 2-2v-1h-2v1z" fill="#f59e0b"/>
  <!-- Star on trophy -->
  <path d="M16 11l1 2.1 2.3.3-1.7 1.6.4 2.3L16 16.1l-2 1.2.4-2.3-1.7-1.6 2.3-.3L16 11z" fill="#1a1230"/>
  <defs>
    <linearGradient id="grad" x1="0" y1="0" x2="32" y2="32">
      <stop offset="0%" stop-color="#7c3aed"/>
      <stop offset="100%" stop-color="#6366f1"/>
    </linearGradient>
  </defs>
</svg>
